<svg id="visual" viewBox="0 0 900 600" width="900" height="600" xmlns="http://www.w3.org/2000/svg" xmlns:xlink="http://www.w3.org/1999/xlink" version="1.1"><rect x="0" y="0" width="900" height="600" fill="#d6e4ef"></rect><path d="M0 442L21.5 441.7C43 441.3 86 440.7 128.8 440.5C171.7 440.3 214.3 440.7 257.2 438.3C300 436 343 431 385.8 432.8C428.7 434.7 471.3 443.3 514.2 444C557 444.7 600 437.3 642.8 434.2C685.7 431 728.3 432 771.2 435.7C814 439.3 857 445.7 878.5 448.8L900 452L900 601L878.5 601C857 601 814 601 771.2 601C728.3 601 685.7 601 642.8 601C600 601 557 601 514.2 601C471.3 601 428.7 601 385.8 601C343 601 300 601 257.2 601C214.3 601 171.7 601 128.8 601C86 601 43 601 21.5 601L0 601Z" fill="#b9def7"></path><path d="M0 455L21.5 457.3C43 459.7 86 464.3 128.8 463.3C171.7 462.3 214.3 455.7 257.2 452.5C300 449.3 343 449.7 385.8 454.3C428.7 459 471.3 468 514.2 473.3C557 478.7 600 480.3 642.8 476C685.7 471.7 728.3 461.3 771.2 455.7C814 450 857 449 878.5 448.5L900 448L900 601L878.5 601C857 601 814 601 771.2 601C728.3 601 685.7 601 642.8 601C600 601 557 601 514.2 601C471.3 601 428.7 601 385.8 601C343 601 300 601 257.2 601C214.3 601 171.7 601 128.8 601C86 601 43 601 21.5 601L0 601Z" fill="#95cef9"></path><path d="M0 516L21.5 514.5C43 513 86 510 128.8 507.2C171.7 504.3 214.3 501.7 257.2 500C300 498.3 343 497.7 385.8 498.8C428.7 500 471.3 503 514.2 504.8C557 506.7 600 507.3 642.8 503.5C685.7 499.7 728.3 491.3 771.2 489.2C814 487 857 491 878.5 493L900 495L900 601L878.5 601C857 601 814 601 771.2 601C728.3 601 685.7 601 642.8 601C600 601 557 601 514.2 601C471.3 601 428.7 601 385.8 601C343 601 300 601 257.2 601C214.3 601 171.7 601 128.8 601C86 601 43 601 21.5 601L0 601Z" fill="#70bdfc"></path><path d="M0 544L21.5 541.3C43 538.7 86 533.3 128.8 533C171.7 532.7 214.3 537.3 257.2 536.3C300 535.3 343 528.7 385.8 527.5C428.7 526.3 471.3 530.7 514.2 530.2C557 529.7 600 524.3 642.8 524.8C685.7 525.3 728.3 531.7 771.2 535.3C814 539 857 540 878.5 540.5L900 541L900 601L878.5 601C857 601 814 601 771.2 601C728.3 601 685.7 601 642.8 601C600 601 557 601 514.2 601C471.3 601 428.7 601 385.8 601C343 601 300 601 257.2 601C214.3 601 171.7 601 128.8 601C86 601 43 601 21.5 601L0 601Z" fill="#48abfe"></path><path d="M0 556L21.5 558.3C43 560.7 86 565.3 128.8 565.2C171.7 565 214.3 560 257.2 559.7C300 559.3 343 563.7 385.8 563.8C428.7 564 471.3 560 514.2 559.7C557 559.3 600 562.7 642.8 562C685.7 561.3 728.3 556.7 771.2 555.7C814 554.7 857 557.3 878.5 558.7L900 560L900 601L878.5 601C857 601 814 601 771.2 601C728.3 601 685.7 601 642.8 601C600 601 557 601 514.2 601C471.3 601 428.7 601 385.8 601C343 601 300 601 257.2 601C214.3 601 171.7 601 128.8 601C86 601 43 601 21.5 601L0 601Z" fill="#0099ff"></path></svg>